# xmcd
#
# Track frame offsets: 
#        150
#        22439
#        44900
#        61408
#        82276
#        103221
#        120007
#        126891
#        146679
#        168269
#        186297
#        205004
#        228195
#        237101
#
# Disc length: 3401 seconds
#
# Revision: 0
# Processed by: cddbd v1.5.2PL0 Copyright (c) Steve Scherf et al.
# Submitted via: ExactAudioCopy v0.95a5
#
DISCID=ca0d470e
DTITLE=Wojtek Klich, Bardzo Orkiestra - Przed Druga
DYEAR=1999
DGENRE=Blues
TTITLE0=Gaj Moj Wietrze
TTITLE1=Sen W Moim Domu
TTITLE2=Daj Zyc
TTITLE3=W Mlodej Duszy Kwiat
TTITLE4=Slonce i Lazy
TTITLE5=Niedzielne Dni
TTITLE6=Romans (Pierwszy)
TTITLE7=Niczym A Niczym
TTITLE8=Bo To Co W Glowie Mam
TTITLE9=Bledna Obsesja
TTITLE10=Wiosenna Poezja
TTITLE11=Nad Rzeka
TTITLE12=Roman(S) Drugi
TTITLE13=Manic Depression
EXTD=
EXTT0=
EXTT1=
EXTT2=
EXTT3=
EXTT4=
EXTT5=
EXTT6=
EXTT7=
EXTT8=
EXTT9=
EXTT10=
EXTT11=
EXTT12=
EXTT13=
PLAYORDER=
